<?xml version="1.0" standalone="no"?>
<!DOCTYPE svg PUBLIC "-//W3C//DTD SVG 20010904//EN"
 "http://www.w3.org/TR/2001/REC-SVG-20010904/DTD/svg10.dtd">
<svg version="1.0" xmlns="http://www.w3.org/2000/svg"
 width="645.000000pt" height="177.000000pt" viewBox="0 0 645.000000 177.000000"
 preserveAspectRatio="xMidYMid meet">

<g transform="translate(0.000000,177.000000) scale(0.100000,-0.100000)"
fill="#000000" stroke="none">
<path d="M2250 890 c0 -873 0 -880 20 -880 20 0 20 7 20 880 0 873 0 880 -20
880 -20 0 -20 -7 -20 -880z"/>
<path d="M88 1743 c-9 -10 -33 -48 -53 -85 -30 -55 -34 -71 -25 -87 6 -12 12
-22 13 -23 1 -2 268 -5 592 -8 l590 -5 3 -35 c6 -55 15 -60 113 -60 105 0 95
-13 135 164 20 86 25 123 17 135 -9 14 -74 16 -690 19 -638 2 -681 1 -695 -15z"/>
<path d="M2470 1520 l0 -60 125 0 125 0 0 -315 0 -315 55 0 55 0 0 315 0 315
125 0 125 0 0 60 0 60 -305 0 -305 0 0 -60z"/>
<path d="M3303 1565 c-17 -7 -39 -24 -48 -38 -14 -22 -235 -669 -235 -689 0
-5 26 -8 58 -8 l57 0 35 103 35 102 157 3 156 2 34 -102 35 -103 61 -3 c34 -2
62 -2 62 0 0 17 -223 666 -235 685 -37 56 -108 76 -172 48z m128 -255 c26 -80
48 -151 48 -157 1 -10 -29 -13 -119 -13 -66 0 -120 1 -120 3 0 8 99 298 105
307 4 6 14 10 23 8 11 -2 31 -48 63 -148z"/>
<path d="M3917 1566 c-59 -16 -96 -42 -122 -87 -19 -32 -20 -55 -23 -341 l-3
-308 54 0 55 0 3 295 c4 266 6 296 22 312 15 15 35 18 122 18 159 0 149 21
155 -333 l5 -287 58 -3 57 -3 0 263 c0 151 5 279 11 300 15 56 50 71 160 66
132 -5 123 19 127 -334 l3 -295 55 3 55 3 0 290 c-1 285 -5 335 -35 380 -24
36 -94 64 -178 71 -104 9 -168 -8 -220 -57 l-40 -38 -30 35 c-52 59 -178 80
-291 50z"/>
<path d="M4860 1205 l0 -375 55 0 55 0 0 375 0 375 -55 0 -55 0 0 -375z"/>
<path d="M5120 1205 l0 -375 55 0 55 0 2 163 3 162 54 3 c68 4 184 -14 222
-34 55 -28 69 -66 69 -186 l0 -108 55 0 55 0 0 115 c0 138 -9 165 -77 225
l-49 44 40 31 c67 50 86 100 86 227 l0 108 -55 0 -55 0 0 -105 c0 -126 -11
-155 -73 -187 -35 -18 -63 -23 -159 -26 l-118 -4 0 161 0 161 -55 0 -55 0 0
-375z"/>
<path d="M6029 1557 c-19 -12 -41 -38 -51 -57 -9 -19 -63 -178 -121 -353
l-105 -318 60 3 61 3 35 103 34 102 156 -2 157 -3 35 -100 35 -100 58 -3 c42
-2 57 0 57 10 0 30 -221 672 -237 691 -44 49 -121 60 -174 24z m135 -244 c27
-82 51 -154 53 -160 4 -10 -23 -13 -116 -13 -67 0 -121 3 -121 7 0 5 23 77 51
160 39 117 55 153 68 153 13 0 28 -35 65 -147z"/>
<path d="M1145 1098 c-24 -21 -36 -66 -136 -507 -66 -291 -108 -494 -104 -509
3 -13 17 -35 30 -48 41 -41 126 -28 154 24 5 10 60 233 121 495 108 466 110
478 95 511 -28 58 -111 76 -160 34z"/>
</g>
</svg>
